<svg width="24" height="24" viewBox="0 0 24 24" fill="none" xmlns="http://www.w3.org/2000/svg">
  <path d="M10.24 3.72C10.63 2.76 11.57 2.13 12.61 2.13C13.65 2.13 14.59 2.76 14.98 3.72L15.27 4.45C15.47 4.94 15.96 5.24 16.48 5.19L17.25 5.13C18.28 5.04 19.27 5.52 19.81 6.4C20.35 7.28 20.34 8.39 19.78 9.26L19.36 9.92C19.08 10.36 19.08 10.92 19.36 11.36L19.78 12.02C20.34 12.89 20.35 14 19.81 14.88C19.27 15.76 18.28 16.24 17.25 16.15L16.48 16.09C15.96 16.04 15.47 16.34 15.27 16.83L14.98 17.56C14.59 18.52 13.65 19.15 12.61 19.15C11.57 19.15 10.63 18.52 10.24 17.56L9.95 16.83C9.75 16.34 9.26 16.04 8.74 16.09L7.97 16.15C6.94 16.24 5.95 15.76 5.41 14.88C4.87 14 4.88 12.89 5.44 12.02L5.86 11.36C6.14 10.92 6.14 10.36 5.86 9.92L5.44 9.26C4.88 8.39 4.87 7.28 5.41 6.4C5.95 5.52 6.94 5.04 7.97 5.13L8.74 5.19C9.26 5.24 9.75 4.94 9.95 4.45L10.24 3.72Z" stroke="currentColor" stroke-width="1.7" stroke-linecap="round" stroke-linejoin="round"/>
  <circle cx="12.61" cy="10.64" r="3.03" stroke="currentColor" stroke-width="1.7"/>
</svg>
